<svg width="787" height="111" viewBox="0 0 787 111" fill="none" xmlns="http://www.w3.org/2000/svg">
<path d="M26.912 110.304C18.848 110.304 12.416 108.768 7.616 105.696C2.912 102.528 0.56 97.92 0.56 91.872C0.56 87.648 1.664 84.288 3.872 81.792C6.176 79.2 9.152 77.904 12.8 77.904C16.064 77.904 18.56 79.152 20.288 81.648C16.736 83.76 14.96 87.216 14.96 92.016C14.96 94.8 15.92 97.152 17.84 99.072C19.856 100.896 22.688 101.808 26.336 101.808C30.56 101.808 34.208 100.368 37.28 97.488C40.448 94.608 42.8 90.912 44.336 86.4C45.968 81.792 46.784 76.944 46.784 71.856C46.784 65.52 45.392 60.96 42.608 58.176C39.824 55.296 35.696 53.856 30.224 53.856H24.176L26.48 43.2H31.664C35.792 43.2 39.344 42 42.32 39.6C45.392 37.2 47.696 34.272 49.232 30.816C50.864 27.264 51.68 23.952 51.68 20.88C51.68 17.328 50.72 14.592 48.8 12.672C46.88 10.656 44.096 9.648 40.448 9.648C31.424 9.648 24.08 15.168 18.416 26.208L15.104 24.768C17.12 16.704 21.104 10.608 27.056 6.47999C33.104 2.256 40.256 0.143998 48.512 0.143998C56.576 0.143998 62.72 2.112 66.944 6.048C71.168 9.98399 73.28 15.216 73.28 21.744C73.28 27.984 71.36 33.36 67.52 37.872C63.776 42.288 58.496 45.648 51.68 47.952C64.064 51.504 70.256 59.616 70.256 72.288C70.256 79.104 68.48 85.44 64.928 91.296C61.472 97.056 56.432 101.664 49.808 105.12C43.28 108.576 35.648 110.304 26.912 110.304ZM94.9363 108.864C89.4643 108.864 84.9043 106.992 81.2563 103.248C77.6082 99.504 75.7842 93.648 75.7842 85.68C75.7842 78.576 77.1763 71.136 79.9603 63.36C82.8403 55.488 87.0643 48.864 92.6323 43.488C98.2963 38.016 105.016 35.28 112.792 35.28C116.728 35.28 119.656 35.952 121.576 37.296C123.496 38.64 124.456 40.416 124.456 42.624V43.632L126.04 36H146.776L136.408 84.96C136.024 86.4 135.832 87.936 135.832 89.568C135.832 93.696 137.8 95.76 141.736 95.76C144.424 95.76 146.728 94.512 148.648 92.016C150.664 89.52 152.248 86.256 153.4 82.224H159.448C155.896 92.592 151.48 99.648 146.2 103.392C141.016 107.04 135.784 108.864 130.504 108.864C126.472 108.864 123.208 107.76 120.712 105.552C118.312 103.248 116.872 99.936 116.392 95.616C113.608 99.552 110.488 102.768 107.032 105.264C103.672 107.664 99.6403 108.864 94.9363 108.864ZM104.296 94.896C106.696 94.896 109.048 93.792 111.352 91.584C113.752 89.28 115.384 86.16 116.248 82.224L123.16 49.68C123.16 48.432 122.68 47.232 121.72 46.08C120.76 44.832 119.272 44.208 117.256 44.208C113.416 44.208 109.96 46.464 106.888 50.976C103.816 55.392 101.416 60.768 99.6883 67.104C97.9603 73.344 97.0963 78.864 97.0963 83.664C97.0963 88.464 97.7683 91.536 99.1123 92.88C100.552 94.224 102.28 94.896 104.296 94.896ZM278.589 82.224C272.541 99.984 263.613 108.864 251.805 108.864C246.333 108.864 242.109 107.424 239.133 104.544C236.253 101.568 234.813 97.92 234.813 93.6C234.813 89.856 235.821 83.472 237.837 74.448L242.013 55.728L215.949 108H198.957L195.069 47.664C193.341 49.68 191.805 52.608 190.461 56.448C189.117 60.192 187.821 65.28 186.573 71.712C184.749 81.12 183.069 88.32 181.533 93.312C180.093 98.304 178.029 102.144 175.341 104.832C172.749 107.52 169.245 108.864 164.829 108.864C159.645 108.864 155.565 107.28 152.589 104.112C149.517 100.848 147.981 96.912 147.981 92.304C147.981 89.04 148.749 86.448 150.285 84.528C151.821 82.512 153.933 81.504 156.621 81.504C158.925 81.504 160.797 82.224 162.237 83.664C163.677 85.104 164.397 86.832 164.397 88.848C164.397 91.152 163.821 92.928 162.669 94.176C161.517 95.328 160.173 95.808 158.637 95.616C158.637 99.264 160.509 101.088 164.253 101.088C166.941 101.088 169.149 100.128 170.877 98.208C172.605 96.192 174.093 92.928 175.341 88.416C176.685 83.904 178.125 77.376 179.661 68.832C181.773 56.64 184.941 48.144 189.165 43.344C193.485 38.448 199.101 36 206.013 36H212.493L215.229 91.296L242.445 36H265.773L258.141 71.712C257.181 75.84 256.365 79.44 255.693 82.512C255.021 85.584 254.685 87.696 254.685 88.848C254.685 92.88 256.605 94.896 260.445 94.896C263.133 94.896 265.293 93.984 266.925 92.16C268.557 90.336 270.429 87.024 272.541 82.224H278.589ZM293.155 108.864C286.051 108.864 280.531 107.04 276.595 103.392C272.659 99.648 270.69 93.84 270.69 85.968C270.69 79.344 271.986 72.048 274.579 64.08C277.171 56.112 281.395 49.248 287.251 43.488C293.107 37.632 300.547 34.704 309.57 34.704C320.131 34.704 325.411 39.312 325.411 48.528C325.411 53.904 323.875 58.848 320.803 63.36C317.731 67.872 313.651 71.52 308.562 74.304C303.475 76.992 298.051 78.528 292.291 78.912C292.099 81.792 292.003 83.712 292.003 84.672C292.003 89.376 292.819 92.592 294.451 94.32C296.083 95.952 298.723 96.768 302.371 96.768C307.555 96.768 311.971 95.568 315.619 93.168C319.363 90.768 323.443 87.12 327.859 82.224H332.755C322.099 99.984 308.899 108.864 293.155 108.864ZM293.443 72C296.995 71.808 300.355 70.56 303.523 68.256C306.787 65.952 309.379 63.024 311.299 59.472C313.315 55.92 314.323 52.176 314.323 48.24C314.323 44.304 313.123 42.336 310.723 42.336C307.267 42.336 303.859 45.36 300.499 51.408C297.235 57.456 294.883 64.32 293.443 72ZM415.38 108.864C409.524 108.864 405.204 107.328 402.42 104.256C399.732 101.088 398.388 97.2 398.388 92.592C398.388 90.576 398.628 88.32 399.108 85.824C399.588 83.232 400.068 80.736 400.548 78.336C401.124 75.936 401.508 74.4 401.7 73.728C402.468 70.368 403.188 67.056 403.86 63.792C404.532 60.528 404.868 57.888 404.868 55.872C404.868 50.976 403.14 48.528 399.684 48.528C397.188 48.528 394.98 49.776 393.06 52.272C391.14 54.672 389.604 57.84 388.452 61.776L378.66 108H357.924L368.436 58.32C368.724 57.168 368.868 55.968 368.868 54.72C368.868 50.496 367.428 48.384 364.548 48.384C361.86 48.384 359.508 49.632 357.492 52.128C355.572 54.528 354.036 57.744 352.884 61.776L343.092 108H322.356L337.62 36H358.356L356.772 43.488C361.668 38.016 367.524 35.28 374.34 35.28C382.788 35.28 387.732 39.408 389.172 47.664C394.452 39.504 401.124 35.424 409.188 35.424C414.084 35.424 417.972 36.768 420.852 39.456C423.732 42.144 425.172 46.224 425.172 51.696C425.172 54.48 424.836 57.6 424.164 61.056C423.492 64.416 422.532 68.544 421.284 73.44C420.516 76.416 419.796 79.344 419.124 82.224C418.548 85.008 418.26 87.216 418.26 88.848C418.26 90.768 418.692 92.256 419.556 93.312C420.42 94.368 421.908 94.896 424.02 94.896C426.9 94.896 429.204 93.888 430.932 91.872C432.66 89.76 434.388 86.544 436.116 82.224H442.164C438.612 92.784 434.484 99.888 429.78 103.536C425.172 107.088 420.372 108.864 415.38 108.864ZM457.133 108.576C450.029 108.576 444.413 106.752 440.285 103.104C436.157 99.456 434.093 93.696 434.093 85.824C434.093 79.296 435.437 72.048 438.125 64.08C440.813 56.112 445.133 49.248 451.085 43.488C457.037 37.632 464.525 34.704 473.549 34.704C485.837 34.704 491.981 42.384 491.981 57.744V57.888C492.269 57.984 492.797 58.032 493.565 58.032C496.733 58.032 500.381 57.216 504.509 55.584C508.637 53.856 512.381 51.792 515.741 49.392L517.037 53.28C514.253 56.256 510.605 58.8 506.093 60.912C501.677 62.928 496.829 64.368 491.549 65.232C490.781 73.968 488.813 81.6 485.645 88.128C482.477 94.656 478.397 99.696 473.405 103.248C468.413 106.8 462.989 108.576 457.133 108.576ZM462.893 95.616C465.197 95.616 467.501 94.32 469.805 91.728C472.109 89.04 474.125 85.44 475.853 80.928C477.581 76.32 478.829 71.232 479.597 65.664C477.005 65.088 475.709 63.072 475.709 59.616C475.709 55.68 477.197 53.088 480.173 51.84C479.981 48.672 479.501 46.512 478.733 45.36C477.965 44.112 476.621 43.488 474.701 43.488C471.533 43.488 468.461 45.792 465.485 50.4C462.509 55.008 460.109 60.528 458.285 66.96C456.461 73.392 455.549 79.056 455.549 83.952C455.549 88.56 456.077 91.68 457.133 93.312C458.189 94.848 460.109 95.616 462.893 95.616ZM547.808 108.864C543.2 108.864 539.456 107.424 536.576 104.544C533.792 101.664 532.4 97.344 532.4 91.584C532.4 89.184 532.784 86.064 533.552 82.224L534.272 78.624C531.488 81.696 528.656 83.808 525.776 84.96C522.896 86.112 519.968 86.688 516.992 86.688C512.384 86.688 508.64 85.248 505.76 82.368C502.976 79.488 501.584 75.168 501.584 69.408C501.584 67.008 501.968 63.888 502.736 60.048L507.776 36H528.512L522.896 62.784C522.608 64.224 522.464 65.568 522.464 66.816C522.464 70.752 523.904 72.72 526.784 72.72C529.568 72.72 531.968 71.568 533.984 69.264C536.096 66.864 537.536 63.792 538.304 60.048L543.344 36H564.08L553.712 84.96C553.328 86.4 553.136 87.936 553.136 89.568C553.136 91.488 553.568 92.88 554.432 93.744C555.392 94.512 556.928 94.896 559.04 94.896C561.728 94.896 564.032 93.744 565.952 91.44C567.968 89.136 569.552 86.064 570.704 82.224H576.752C573.2 92.592 568.784 99.648 563.504 103.392C558.32 107.04 553.088 108.864 547.808 108.864ZM622.96 108.864C617.488 108.864 613.264 107.424 610.288 104.544C607.408 101.568 605.968 97.92 605.968 93.6C605.968 90.816 607.072 84.096 609.28 73.44H593.296L585.952 108H565.215L580.48 36H601.216L595.024 64.8H611.152L617.632 36H636.928L629.296 71.712C628.336 75.84 627.52 79.44 626.848 82.512C626.176 85.584 625.84 87.696 625.84 88.848C625.84 92.88 627.76 94.896 631.6 94.896C634.288 94.896 636.448 93.984 638.08 92.16C639.712 90.336 641.584 87.024 643.696 82.224H649.744C643.696 99.984 634.768 108.864 622.96 108.864ZM657.928 108.864C653.32 108.864 649.576 107.424 646.696 104.544C643.912 101.664 642.52 97.344 642.52 91.584C642.52 89.184 642.904 86.064 643.672 82.224L653.464 36H674.2L663.832 84.96C663.544 86.4 663.4 87.744 663.4 88.992C663.4 92.928 664.84 94.896 667.72 94.896C670.408 94.896 672.712 93.792 674.632 91.584C676.552 89.28 678.088 86.16 679.24 82.224L689.032 36H709.768L699.4 84.96C699.016 86.4 698.824 87.936 698.824 89.568C698.824 91.488 699.256 92.88 700.12 93.744C701.08 94.512 702.616 94.896 704.728 94.896C707.416 94.896 709.72 93.744 711.64 91.44C713.656 89.136 715.24 86.064 716.392 82.224H722.44C718.888 92.592 714.472 99.648 709.192 103.392C704.008 107.04 698.776 108.864 693.496 108.864C689.368 108.864 686.056 107.712 683.56 105.408C681.16 103.104 679.72 99.696 679.24 95.184C675.976 100.464 672.52 104.064 668.872 105.984C665.32 107.904 661.672 108.864 657.928 108.864ZM766.775 108.864C762.071 108.864 758.231 107.424 755.255 104.544C752.375 101.568 750.935 97.68 750.935 92.88C750.935 90.576 751.271 87.984 751.943 85.104C752.039 84.432 752.183 83.424 752.375 82.08C752.567 80.736 752.663 79.632 752.663 78.768C752.663 76.752 752.231 75.168 751.367 74.016C750.503 72.864 749.207 72.288 747.479 72.288C746.135 72.288 744.887 72.672 743.735 73.44C742.583 74.112 740.663 75.504 737.975 77.616L731.639 108H710.903L726.311 36H747.047L740.855 64.512C745.847 59.52 750.359 54.768 754.391 50.256C758.327 46.032 761.303 42.96 763.319 41.04C765.431 39.024 767.543 37.488 769.655 36.432C771.767 35.28 774.071 34.704 776.567 34.704C779.927 34.704 782.471 35.568 784.199 37.296C785.927 39.024 786.791 41.376 786.791 44.352C786.791 47.232 785.975 49.488 784.343 51.12C782.807 52.752 780.599 53.568 777.719 53.568C774.935 53.568 772.919 52.848 771.671 51.408C770.423 49.872 769.799 48.144 769.799 46.224C767.879 47.472 766.103 48.864 764.471 50.4C762.935 51.84 760.823 54 758.135 56.88C754.679 60.624 752.903 62.544 752.807 62.64C754.727 62.256 756.743 62.064 758.855 62.064C768.167 62.064 772.823 66.288 772.823 74.736C772.823 76.848 772.439 79.536 771.671 82.8C770.999 85.296 770.663 87.408 770.663 89.136C770.663 92.976 772.679 94.896 776.711 94.896C779.207 94.896 781.127 94.416 782.471 93.456C781.991 98.544 780.359 102.384 777.575 104.976C774.791 107.568 771.191 108.864 766.775 108.864Z" fill="#60403E"/>
</svg>
